<svg width="159" height="31" viewBox="0 0 159 31" fill="none" xmlns="http://www.w3.org/2000/svg">
<path d="M39.2812 27.5L41.3125 18.7188L34.5 12.8125L43.5 12.0312L47 3.75L50.5 12.0312L59.5 12.8125L52.6875 18.7188L54.7188 27.5L47 22.8438L39.2812 27.5Z" fill="white"/>
<path d="M71.2812 27.5L73.3125 18.7188L66.5 12.8125L75.5 12.0312L79 3.75L82.5 12.0312L91.5 12.8125L84.6875 18.7188L86.7188 27.5L79 22.8438L71.2812 27.5Z" fill="white"/>
<path d="M103.281 27.5L105.313 18.7188L98.5 12.8125L107.5 12.0312L111 3.75L114.5 12.0312L123.5 12.8125L116.688 18.7188L118.719 27.5L111 22.8438L103.281 27.5Z" fill="white"/>
<path d="M133.281 27.5L135.313 18.7188L128.5 12.8125L137.5 12.0312L141 3.75L144.5 12.0312L153.5 12.8125L146.688 18.7188L148.719 27.5L141 22.8438L133.281 27.5Z" fill="white"/>
<mask id="mask0_3_125" style="mask-type:alpha" maskUnits="userSpaceOnUse" x="128" y="2" width="26" height="26">
<path d="M134.31 25.8333L136.071 18.2229L130.167 13.1042L137.967 12.4271L141 5.25L144.033 12.4271L151.833 13.1042L145.929 18.2229L147.69 25.8333L141 21.7979L134.31 25.8333Z" fill="white"/>
</mask>
<g mask="url(#mask0_3_125)">
<rect x="141" y="0.266602" width="16.4667" height="29.4667" fill="#3C3C3C"/>
</g>
<path d="M7.28125 27.5L9.3125 18.7188L2.5 12.8125L11.5 12.0312L15 3.75L18.5 12.0312L27.5 12.8125L20.6875 18.7188L22.7188 27.5L15 22.8438L7.28125 27.5Z" fill="white"/>
</svg>
