<svg width="35" height="35" viewBox="0 0 35 35" fill="none" xmlns="http://www.w3.org/2000/svg">
<g clip-path="url(#clip0_3_99)">
<path d="M17.5 2.91675C25.5544 2.91675 32.0834 9.44571 32.0834 17.5001C32.0834 25.5545 25.5544 32.0834 17.5 32.0834C9.44565 32.0834 2.91669 25.5545 2.91669 17.5001C2.91669 9.44571 9.44565 2.91675 17.5 2.91675ZM17.5 5.83341C14.4058 5.83341 11.4384 7.06258 9.25044 9.2505C7.06252 11.4384 5.83335 14.4059 5.83335 17.5001C5.83335 20.5943 7.06252 23.5617 9.25044 25.7497C11.4384 27.9376 14.4058 29.1667 17.5 29.1667C20.5942 29.1667 23.5617 27.9376 25.7496 25.7497C27.9375 23.5617 29.1667 20.5943 29.1667 17.5001C29.1667 14.4059 27.9375 11.4384 25.7496 9.2505C23.5617 7.06258 20.5942 5.83341 17.5 5.83341ZM17.5 8.75008C17.8572 8.75013 18.202 8.88127 18.4689 9.11862C18.7358 9.35598 18.9064 9.68305 18.9481 10.0378L18.9584 10.2084V16.8963L22.9061 20.844C23.1676 21.1065 23.3195 21.4586 23.3308 21.829C23.3421 22.1993 23.212 22.5601 22.9669 22.838C22.7219 23.1159 22.3803 23.2901 22.0114 23.3252C21.6426 23.3604 21.2742 23.2538 20.9811 23.0272L20.844 22.9061L16.469 18.5311C16.2423 18.3043 16.0968 18.009 16.0548 17.6911L16.0417 17.5001V10.2084C16.0417 9.82164 16.1953 9.45071 16.4688 9.17722C16.7423 8.90373 17.1132 8.75008 17.5 8.75008Z" fill="#898989"/>
</g>
<defs>
<clipPath id="clip0_3_99">
<rect width="35" height="35" fill="white"/>
</clipPath>
</defs>
</svg>
